<?xml version="1.0" standalone="no"?>
<!DOCTYPE svg PUBLIC "-//W3C//DTD SVG 20010904//EN"
 "http://www.w3.org/TR/2001/REC-SVG-20010904/DTD/svg10.dtd">
<svg version="1.0" xmlns="http://www.w3.org/2000/svg"
 width="80.000000pt" height="80.000000pt" viewBox="0 0 80.000000 80.000000"
 preserveAspectRatio="xMidYMid meet">
<metadata>
Created by potrace 1.11, written by Peter Selinger 2001-2013
</metadata>
<g transform="translate(0.000000,80.000000) scale(0.100000,-0.100000)"
fill="#000000" stroke="none">
<path d="M0 400 l0 -400 400 0 400 0 0 400 0 400 -400 0 -400 0 0 -400z m790
0 l0 -390 -390 0 -390 0 0 390 0 390 390 0 390 0 0 -390z"/>
<path d="M320 656 c0 -4 7 -17 16 -31 9 -14 14 -40 12 -67 l-3 -43 -67 -9
c-38 -5 -68 -13 -68 -17 0 -19 41 -30 75 -20 33 9 34 8 24 -10 -15 -28 -98
-110 -142 -139 -41 -28 -49 -45 -14 -35 49 16 120 61 159 103 l41 45 -7 -68
c-6 -56 -4 -71 10 -86 31 -34 44 -7 44 88 l0 85 69 -71 c68 -71 68 -71 122
-71 99 0 128 19 62 40 -99 30 -250 120 -238 141 4 5 30 9 58 9 29 0 59 5 67
10 13 8 13 11 -2 27 -16 15 -24 16 -75 5 -31 -6 -58 -10 -61 -8 -2 3 0 25 6
50 7 35 6 48 -3 56 -15 13 -85 26 -85 16z"/>
<path d="M190 252 c0 -5 -11 -26 -26 -47 -29 -43 -29 -80 1 -80 40 0 74 121
38 133 -7 2 -13 -1 -13 -6z"/>
<path d="M387 254 c-14 -14 45 -104 68 -104 38 0 19 69 -24 91 -14 7 -29 15
-32 16 -3 2 -8 1 -12 -3z"/>
<path d="M511 238 c14 -28 70 -100 83 -110 14 -10 36 11 36 34 0 32 -19 57
-60 78 -54 28 -74 27 -59 -2z"/>
<path d="M266 242 c-9 -14 37 -97 54 -97 10 0 15 10 15 34 0 29 -6 38 -32 53
-17 11 -34 15 -37 10z"/>
</g>
</svg>
